<svg width="782" height="1024" viewBox="0 0 782 1024" fill="none" xmlns="http://www.w3.org/2000/svg">
<path d="M783 0H20C8.95428 0 -6.10352e-05 8.95431 -6.10352e-05 20V1004C-6.10352e-05 1015.05 8.95428 1024 19.9999 1024H783V0Z" fill="#14B8A6"/>
<g clip-path="url(#clip0_4_2018)">
<path d="M741 667.902H65V668.239H741V667.902Z" fill="#5EEAD4"/>
<path d="M673.265 689.614H628.486V689.951H673.265V689.614Z" fill="#5EEAD4"/>
<path d="M512.809 693.284H501.061V693.621H512.809V693.284Z" fill="#5EEAD4"/>
<path d="M627.134 677.091H601.189V677.429H627.134V677.091Z" fill="#5EEAD4"/>
<path d="M194.319 679.358H135.926V679.696H194.319V679.358Z" fill="#5EEAD4"/>
<path d="M214.923 679.358H206.365V679.696H214.923V679.358Z" fill="#5EEAD4"/>
<path d="M369.403 685.053H242.748V685.39H369.403V685.053Z" fill="#5EEAD4"/>
<path d="M385.438 607.719H124.366C120.108 607.719 116.646 604.264 116.646 600.014V233.748C116.646 229.497 120.108 226.043 124.366 226.043H385.438C389.696 226.043 393.158 229.497 393.158 233.748V600.014C393.158 604.264 389.696 607.719 385.438 607.719ZM124.366 226.38C120.297 226.38 116.984 229.686 116.984 233.748V600.014C116.984 604.076 120.297 607.382 124.366 607.382H385.438C389.507 607.382 392.82 604.076 392.82 600.014V233.748C392.82 229.686 389.507 226.38 385.438 226.38H124.366Z" fill="#5EEAD4"/>
<path d="M677.875 607.719H416.804C412.545 607.719 409.084 604.264 409.084 600.014V233.748C409.084 229.497 412.545 226.043 416.804 226.043H677.875C682.134 226.043 685.595 229.497 685.595 233.748V600.014C685.595 604.264 682.134 607.719 677.875 607.719ZM416.804 226.38C412.734 226.38 409.422 229.686 409.422 233.748V600.014C409.422 604.076 412.734 607.382 416.804 607.382H677.875C681.945 607.382 685.257 604.076 685.257 600.014V233.748C685.257 229.686 681.945 226.38 677.875 226.38H416.804Z" fill="#5EEAD4"/>
<path d="M440.491 368.728L439.883 350.997L450.793 347.435C451.24 341.376 452.254 335.398 453.7 329.623L444.453 322.822L450.739 306.17L462.177 307.088C464.908 301.704 468.113 296.576 471.695 291.772L465.774 281.908L477.955 268.94L488.176 274.162C492.787 270.263 497.64 266.714 502.832 263.597L501.182 252.275L517.406 244.921L524.842 253.611C530.507 251.776 536.375 250.4 542.446 249.495L545.204 238.39L563.023 237.783L566.538 248.672C572.663 249.172 578.598 250.13 584.385 251.574L591.253 242.398L607.936 248.618L607.017 260.034C612.412 262.8 617.549 265.999 622.362 269.574L632.205 263.664L645.252 275.768L640.019 286.024C643.927 290.571 647.482 295.469 650.565 300.651L661.908 298.951L669.317 315.144L660.556 322.565C662.395 328.219 663.815 334.116 664.68 340.134L675.847 342.941L676.456 360.672L665.505 364.234C665.058 370.334 664.044 376.271 662.598 382.033L671.845 388.834L665.559 405.485L654.121 404.568C651.39 409.952 648.185 415.08 644.603 419.883L650.524 429.748L638.343 442.715L628.122 437.493C623.566 441.393 618.658 444.942 613.466 448.072L615.17 459.394L598.946 466.748L591.469 458.058C585.804 459.893 579.936 461.269 573.866 462.174L571.108 473.279L553.289 473.886L549.773 462.997C543.662 462.497 537.714 461.539 531.94 460.095L525.126 469.271L508.443 463.051L509.322 451.635C503.927 448.868 498.844 445.67 493.976 442.081L484.134 447.991L471.1 435.887L476.333 425.632C472.425 421.084 468.87 416.186 465.787 411.004L454.444 412.705L447.035 396.512L455.796 389.09C453.957 383.436 452.538 377.58 451.672 371.521L440.545 368.714L440.491 368.728ZM560.549 426.172C599.459 424.836 629.92 392.275 628.595 353.439C627.256 314.563 594.633 284.148 555.722 285.484C516.812 286.82 486.351 319.381 487.676 358.257C489.014 397.092 521.638 427.494 560.549 426.172Z" fill="#5EEAD4"/>
<path d="M226.929 578.882L226.659 570.881L231.58 569.275C231.783 566.549 232.242 563.85 232.891 561.246L228.727 558.183L231.553 550.667L236.704 551.085C237.934 548.656 239.381 546.349 240.99 544.176L238.313 539.723L243.802 533.88L248.412 536.242C250.494 534.474 252.671 532.882 255.024 531.478L254.28 526.377L261.594 523.058L264.947 526.971C267.503 526.148 270.153 525.527 272.884 525.123L274.127 520.116L282.158 519.846L283.74 524.758C286.498 524.974 289.175 525.419 291.785 526.067L294.881 521.924L302.411 524.731L301.992 529.872C304.426 531.114 306.738 532.558 308.914 534.177L313.349 531.519L319.23 536.984L316.864 541.599C318.622 543.65 320.231 545.863 321.623 548.197L326.734 547.428L330.073 554.728L326.125 558.075C326.95 560.625 327.599 563.283 327.991 565.996L333.034 567.264L333.304 575.266L328.37 576.872C328.167 579.625 327.707 582.296 327.058 584.901L331.222 587.964L328.397 595.48L323.246 595.062C322.015 597.491 320.569 599.798 318.96 601.971L321.637 606.424L316.148 612.266L311.537 609.905C309.482 611.659 307.278 613.265 304.926 614.668L305.697 619.769L298.382 623.089L295.016 619.175C292.461 619.998 289.811 620.619 287.08 621.024L285.836 626.03L277.805 626.3L276.223 621.388C273.465 621.172 270.788 620.727 268.179 620.079L265.11 624.222L257.579 621.415L257.971 616.274C255.537 615.033 253.239 613.589 251.049 611.97L246.614 614.641L240.733 609.176L243.099 604.561C241.341 602.51 239.733 600.297 238.34 597.963L233.229 598.732L229.89 591.432L233.838 588.085C233.013 585.535 232.364 582.904 231.972 580.164L226.956 578.896L226.929 578.882ZM281.063 604.791C298.612 604.197 312.348 589.502 311.74 572.001C311.132 554.472 296.422 540.762 278.886 541.356C261.337 541.95 247.601 556.644 248.21 574.173C248.804 591.688 263.528 605.398 281.063 604.791Z" fill="black"/>
<path d="M224.117 281.49L219.642 277.32L221.427 273.798C220.061 272.206 218.844 270.505 217.79 268.751L213.869 269.345L211.327 263.758L214.342 261.195C213.693 259.225 213.22 257.187 212.923 255.149L209.069 254.191L208.867 248.065L212.639 246.851C212.801 244.772 213.125 242.735 213.626 240.711L210.449 238.349L212.612 232.614L216.546 232.925C217.479 231.103 218.574 229.335 219.831 227.635L217.79 224.262L221.981 219.782L225.496 221.576C227.105 220.214 228.795 218.999 230.553 217.947L229.985 214.033L235.569 211.483L238.137 214.492C240.125 213.858 242.166 213.386 244.208 213.089L245.168 209.256L251.306 209.041L252.536 212.819C254.605 212.981 256.66 213.305 258.688 213.817L261.04 210.646L266.8 212.792L266.475 216.732C268.301 217.663 270.099 218.756 271.775 220.011L275.182 217.974L279.657 222.143L277.859 225.679C279.238 227.271 280.442 228.971 281.496 230.725L285.417 230.132L287.959 235.718L284.944 238.282C285.593 240.252 286.066 242.29 286.363 244.327L290.217 245.285L290.419 251.412L286.647 252.626C286.485 254.691 286.161 256.742 285.66 258.766L288.837 261.114L286.674 266.849L282.726 266.552C281.794 268.373 280.698 270.141 279.441 271.841L281.483 275.215L277.291 279.695L273.776 277.9C272.167 279.263 270.477 280.477 268.72 281.53L269.301 285.43L263.717 287.98L261.149 284.984C259.161 285.619 257.133 286.077 255.078 286.388L254.118 290.22L247.98 290.436L246.75 286.658C244.681 286.496 242.626 286.172 240.598 285.659L238.246 288.83L232.486 286.685L232.811 282.744C230.985 281.813 229.201 280.734 227.511 279.465L224.117 281.49ZM256.051 255.676C259.35 252.154 259.161 246.621 255.632 243.342C252.104 240.05 246.56 240.239 243.262 243.76C239.963 247.282 240.152 252.815 243.694 256.107C247.223 259.4 252.766 259.211 256.051 255.689V255.676Z" fill="#5EEAD4"/>
<path d="M348.082 571.582L358.303 564.539C358.303 564.539 358.303 564.525 358.303 564.512C359.317 560.801 360.709 557.238 362.413 553.878L359.79 543.623L374.621 527.768L385.059 529.67C388.29 527.741 391.765 526.108 395.402 524.853C395.402 524.853 395.415 524.853 395.429 524.853L401.77 514.193L423.483 513.45L430.54 523.652C430.54 523.652 430.567 523.652 430.581 523.652C434.285 524.664 437.868 526.054 441.221 527.754L451.496 525.136L467.382 539.939L465.476 550.343C467.45 553.608 469.045 557.076 470.303 560.693L480.983 567.021L481.727 588.693L471.492 595.75C470.478 599.488 469.126 603.037 467.396 606.424L470.005 616.652L455.174 632.508L444.804 630.618C441.532 632.548 438.057 634.181 434.38 635.449L428.039 646.096L406.326 646.838L399.268 636.637C395.51 635.625 391.941 634.235 388.534 632.534L378.299 635.139L362.413 620.336L364.319 609.932C362.345 606.667 360.75 603.199 359.493 599.569L348.798 593.227L348.055 571.555L348.082 571.582ZM415.763 604.535C429.269 604.076 439.801 592.768 439.342 579.328C438.882 565.847 427.579 555.322 414.086 555.794C400.593 556.267 390.034 567.534 390.507 581.001C390.967 594.441 402.27 605.007 415.763 604.535Z" fill="#5EEAD4"/>
<path d="M165.183 315.103C164.683 315.103 164.21 314.86 163.926 314.442L160.154 308.99C158.315 308.464 156.49 307.762 154.719 306.912L149.338 308.275C148.824 308.396 148.297 308.275 147.918 307.911L138.711 299.342C138.333 298.991 138.157 298.465 138.252 297.952L139.252 292.487C138.306 290.854 137.481 289.087 136.805 287.238L131.086 283.851C130.64 283.581 130.356 283.109 130.342 282.583L129.91 270.02C129.896 269.493 130.14 269.008 130.572 268.711L136.034 264.946C136.548 263.138 137.265 261.316 138.116 259.548L136.737 254.151C136.602 253.652 136.737 253.112 137.102 252.734L145.688 243.545C146.039 243.167 146.566 242.991 147.08 243.086L152.569 244.084C154.259 243.113 156.017 242.303 157.815 241.642L161.209 235.934C161.479 235.489 161.952 235.205 162.479 235.192L175.053 234.76C175.58 234.76 176.067 234.989 176.364 235.421L180.137 240.873C182.002 241.413 183.814 242.114 185.545 242.951L190.939 241.574C191.439 241.453 191.98 241.574 192.359 241.939L201.566 250.507C201.944 250.858 202.12 251.385 202.025 251.897L201.025 257.362C201.985 259.036 202.796 260.776 203.472 262.612L209.191 265.998C209.637 266.268 209.921 266.741 209.935 267.267L210.367 279.83C210.381 280.356 210.137 280.842 209.705 281.139L204.229 284.917C203.688 286.82 202.985 288.628 202.147 290.328L203.513 295.699C203.648 296.198 203.513 296.738 203.148 297.116L194.562 306.291C194.211 306.669 193.684 306.845 193.17 306.75L187.721 305.752C186.004 306.723 184.233 307.546 182.435 308.208L179.055 313.902C178.785 314.347 178.311 314.631 177.784 314.644L165.197 315.076C165.197 315.076 165.156 315.076 165.143 315.076L165.183 315.103ZM154.881 303.755C155.125 303.755 155.354 303.809 155.571 303.916C157.491 304.888 159.491 305.644 161.492 306.183C161.844 306.278 162.155 306.494 162.358 306.791L165.968 312.013L176.878 311.635L180.123 306.183C180.312 305.86 180.623 305.617 180.975 305.509C182.922 304.834 184.855 303.943 186.707 302.85C187.032 302.662 187.397 302.594 187.762 302.662L192.953 303.606L200.403 295.645L199.092 290.53C198.997 290.166 199.037 289.788 199.213 289.451C200.146 287.629 200.903 285.646 201.471 283.568C201.566 283.217 201.782 282.906 202.079 282.704L207.312 279.088L206.933 268.198L201.458 264.959C201.147 264.771 200.917 264.487 200.795 264.15C200.092 262.126 199.2 260.223 198.159 258.469C197.942 258.145 197.875 257.754 197.942 257.362L198.902 252.167L190.925 244.732L185.788 246.041C185.423 246.135 185.044 246.095 184.72 245.92C182.841 244.961 180.867 244.206 178.852 243.653C178.501 243.558 178.176 243.342 177.973 243.045L174.363 237.823L163.453 238.201L160.208 243.666C160.059 243.909 159.857 244.098 159.613 244.233C159.519 244.287 159.397 244.327 159.289 244.354C157.409 245.015 155.49 245.906 153.664 246.986C153.34 247.174 152.961 247.242 152.596 247.174L147.378 246.216L139.928 254.178L141.239 259.305C141.334 259.67 141.294 260.048 141.118 260.372C140.158 262.261 139.401 264.231 138.846 266.241C138.752 266.592 138.535 266.903 138.238 267.118L133.006 270.721L133.384 281.611L138.86 284.85C139.171 285.038 139.401 285.322 139.522 285.659C140.225 287.697 141.131 289.626 142.186 291.367C142.375 291.691 142.443 292.069 142.375 292.433L141.415 297.642L149.392 305.077L154.503 303.782C154.624 303.755 154.759 303.728 154.881 303.728V303.755ZM170.145 297.885C164.305 297.885 158.761 295.699 154.462 291.704C149.973 287.521 147.391 281.84 147.175 275.728C146.958 269.588 149.162 263.745 153.34 259.265C157.531 254.785 163.223 252.208 169.361 251.992C175.513 251.776 181.367 253.962 185.855 258.145C190.344 262.328 192.926 268.009 193.143 274.135C193.359 280.262 191.155 286.091 186.978 290.584C182.786 295.078 177.095 297.655 170.956 297.871C170.686 297.871 170.416 297.885 170.145 297.885ZM170.186 255.041C169.956 255.041 169.713 255.041 169.483 255.041C164.156 255.23 159.221 257.457 155.598 261.343C151.961 265.229 150.068 270.29 150.257 275.606C150.433 280.909 152.677 285.835 156.571 289.451C160.465 293.081 165.535 294.983 170.862 294.795C176.189 294.619 181.11 292.366 184.747 288.479C188.384 284.593 190.277 279.533 190.101 274.23C189.911 268.913 187.681 263.988 183.787 260.372C180.069 256.904 175.269 255.028 170.199 255.028L170.186 255.041Z" fill="#5EEAD4"/>
<g opacity="0.1" filter="url(#filter0_f_4_2018)">
<path d="M403 810.816C547.776 810.816 665.139 803.977 665.139 795.541C665.139 787.105 547.776 780.266 403 780.266C258.225 780.266 140.861 787.105 140.861 795.541C140.861 803.977 258.225 810.816 403 810.816Z" fill="black"/>
</g>
<path d="M627.987 381.315H178.014C166.956 381.315 157.991 390.262 157.991 401.299V688.437C157.991 699.474 166.956 708.421 178.014 708.421H627.987C639.045 708.421 648.01 699.474 648.01 688.437V401.299C648.01 390.262 639.045 381.315 627.987 381.315Z" fill="#2DD4BF"/>
<path d="M653.472 604.221H652.12V592.023H653.472V604.221ZM653.472 582.496H652.12V557.316H653.472V582.496Z" fill="white"/>
<path d="M627.987 709.15H178.014C166.577 709.15 157.261 699.853 157.261 688.437V401.299C157.261 389.883 166.577 380.586 178.014 380.586H628.001C639.439 380.586 648.754 389.883 648.754 401.299V688.437C648.754 699.853 639.439 709.15 628.001 709.15H627.987ZM178.014 382.043C167.374 382.043 158.721 390.679 158.721 401.299V688.437C158.721 699.057 167.374 707.693 178.014 707.693H628.001C638.641 707.693 647.294 699.057 647.294 688.437V401.299C647.294 390.679 638.641 382.043 628.001 382.043H178.014Z" fill="white"/>
<path opacity="0.5" d="M321.61 640.79H314.796V639.332H321.61L321.732 640.79H321.61ZM307.969 640.79H301.155V639.332H307.969V640.79ZM294.327 640.79H287.513V639.332H294.327V640.79ZM280.685 640.79H273.871V639.332H280.685V640.79ZM267.044 640.79H260.23V639.332H267.044V640.79ZM253.402 640.79H246.588V639.332H253.402V640.79ZM239.76 640.79H232.946V639.332H239.76V640.79ZM226.119 640.79H219.305V639.332H226.119V640.79ZM212.477 640.79H205.663V639.332H212.477V640.79ZM198.835 640.79H196.293C194.725 640.79 193.238 640.439 191.845 639.737L192.494 638.428C193.684 639.022 194.955 639.319 196.293 639.319H198.835V640.776V640.79ZM328.343 638.118L327.343 637.052C328.898 635.608 329.844 633.651 330.006 631.546L331.466 631.668C331.264 634.137 330.155 636.431 328.343 638.131V638.118ZM187.005 634.434C186.559 633.301 186.343 632.086 186.343 630.858V627.444H187.803V630.858C187.803 631.911 187.992 632.936 188.371 633.908L187.005 634.434ZM331.507 624.799H330.047V617.998H331.507V624.799ZM187.803 620.643H186.343V613.842H187.803V620.643ZM331.507 611.197H330.047V604.396H331.507V611.197ZM187.803 607.041H186.343V600.24H187.803V607.041ZM331.507 597.596H330.047V590.795H331.507V597.596ZM187.803 593.439H186.343V586.638H187.803V593.439ZM331.507 583.994H330.047V577.193H331.507V583.994ZM187.803 579.838H186.343V573.037H187.803V579.838ZM331.507 570.392H330.047V563.591H331.507V570.392ZM187.803 566.236H186.343V559.435H187.803V566.236ZM331.507 556.79H330.047V549.989H331.507V556.79ZM187.803 552.634H186.343V545.833H187.803V552.634ZM331.507 543.188H330.047V536.387H331.507V543.188ZM187.803 539.032H186.343V532.231H187.803V539.032ZM331.507 529.586H330.047V522.785H331.507V529.586ZM187.803 525.43H186.343V518.629H187.803V525.43ZM331.507 515.984H330.047V509.183H331.507V515.984ZM187.803 511.828H186.343V505.027H187.803V511.828ZM331.507 502.382H330.047V495.581H331.507V502.382ZM187.803 498.226H186.343V491.425H187.803V498.226ZM331.507 488.78H330.047V481.979H331.507V488.78ZM187.803 484.624H186.343V477.823H187.803V484.624ZM331.507 475.178H330.047V471.819C330.047 470.752 329.844 469.713 329.465 468.728L330.831 468.189C331.291 469.349 331.521 470.564 331.521 471.819V475.178H331.507ZM187.83 471.076L186.37 470.955C186.586 468.486 187.708 466.205 189.533 464.518L190.52 465.584C188.952 467.028 188.006 468.971 187.816 471.076H187.83ZM325.301 464.208C324.125 463.628 322.868 463.344 321.543 463.344H318.947V461.887H321.543C323.084 461.887 324.571 462.224 325.937 462.912L325.288 464.221L325.301 464.208ZM312.133 463.344H305.319V461.887H312.133V463.344ZM298.491 463.344H291.677V461.887H298.491V463.344ZM284.849 463.344H278.035V461.887H284.849V463.344ZM271.208 463.344H264.394V461.887H271.208V463.344ZM257.566 463.344H250.752V461.887H257.566V463.344ZM243.924 463.344H237.11V461.887H243.924V463.344ZM230.283 463.344H223.469V461.887H230.283V463.344ZM216.641 463.344H209.827V461.887H216.641V463.344ZM202.999 463.344H196.239L196.185 461.887H202.999V463.344Z" fill="white"/>
<path d="M196.713 402.365C196.713 405.927 193.819 408.802 190.263 408.802C186.708 408.802 183.814 405.914 183.814 402.365C183.814 398.816 186.708 395.928 190.263 395.928C193.819 395.928 196.713 398.816 196.713 402.365Z" fill="white"/>
<path opacity="0.2" d="M239.084 406.13H207.421C205.338 406.13 203.648 404.43 203.648 402.365C203.648 400.287 205.352 398.6 207.421 398.6H239.084C241.166 398.6 242.856 400.301 242.856 402.365C242.856 404.443 241.153 406.13 239.084 406.13Z" fill="white"/>
<path opacity="0.2" d="M391.725 404.43H369.512C368.363 404.43 367.443 403.499 367.443 402.365C367.443 401.218 368.376 400.301 369.512 400.301H391.725C392.874 400.301 393.794 401.232 393.794 402.365C393.794 403.512 392.861 404.43 391.725 404.43Z" fill="white"/>
<path opacity="0.2" d="M441.573 404.43H419.36C418.211 404.43 417.292 403.499 417.292 402.365C417.292 401.218 418.224 400.301 419.36 400.301H441.573C442.723 400.301 443.642 401.232 443.642 402.365C443.642 403.512 442.709 404.43 441.573 404.43Z" fill="white"/>
<path opacity="0.2" d="M491.422 404.43H469.208C468.059 404.43 467.14 403.499 467.14 402.365C467.14 401.218 468.073 400.301 469.208 400.301H491.422C492.571 400.301 493.49 401.232 493.49 402.365C493.49 403.512 492.557 404.43 491.422 404.43Z" fill="white"/>
<path opacity="0.2" d="M541.283 404.43H519.07C517.921 404.43 517.001 403.499 517.001 402.365C517.001 401.218 517.934 400.301 519.07 400.301H541.283C542.433 400.301 543.352 401.232 543.352 402.365C543.352 403.512 542.419 404.43 541.283 404.43Z" fill="white"/>
<path opacity="0.7" d="M605.071 406.008H571.46C569.446 406.008 567.81 404.376 567.81 402.365C567.81 400.354 569.446 398.722 571.46 398.722H605.071C607.085 398.722 608.721 400.354 608.721 402.365C608.721 404.376 607.085 406.008 605.071 406.008Z" fill="white"/>
<path opacity="0.7" d="M438.18 635.379H375.231C370.93 635.379 367.443 638.859 367.443 643.151V644.838C367.443 649.131 370.93 652.61 375.231 652.61H438.18C442.481 652.61 445.968 649.131 445.968 644.838V643.151C445.968 638.859 442.481 635.379 438.18 635.379Z" fill="white"/>
<path opacity="0.2" d="M604.584 558.396V492.788C604.584 491.641 605.517 490.723 606.653 490.723C607.802 490.723 608.721 491.654 608.721 492.788V558.396C608.721 559.542 607.788 560.46 606.653 560.46C605.503 560.46 604.584 559.529 604.584 558.396Z" fill="white"/>
<path opacity="0.2" d="M606.653 579.176C607.795 579.176 608.721 578.252 608.721 577.112C608.721 575.971 607.795 575.047 606.653 575.047C605.51 575.047 604.584 575.971 604.584 577.112C604.584 578.252 605.51 579.176 606.653 579.176Z" fill="white"/>
<path opacity="0.2" d="M606.653 608.35C607.795 608.35 608.721 607.426 608.721 606.286C608.721 605.145 607.795 604.221 606.653 604.221C605.51 604.221 604.584 605.145 604.584 606.286C604.584 607.426 605.51 608.35 606.653 608.35Z" fill="white"/>
<path opacity="0.2" d="M606.653 637.524C607.795 637.524 608.721 636.6 608.721 635.459C608.721 634.319 607.795 633.395 606.653 633.395C605.51 633.395 604.584 634.319 604.584 635.459C604.584 636.6 605.51 637.524 606.653 637.524Z" fill="white"/>
<path opacity="0.2" d="M544.204 462.521H384.046C374.877 462.521 367.443 469.937 367.443 479.085C367.443 488.233 374.877 495.649 384.046 495.649H544.204C553.373 495.649 560.806 488.233 560.806 479.085C560.806 469.937 553.373 462.521 544.204 462.521Z" fill="white"/>
<path opacity="0.2" d="M485.419 543.755H384.046C374.92 543.755 367.443 536.306 367.443 527.184C367.443 518.076 374.906 510.614 384.046 510.614H485.419C494.545 510.614 502.021 518.062 502.021 527.184C502.021 536.292 494.558 543.755 485.419 543.755Z" fill="white"/>
<path d="M515.271 582.496H371.324C369.187 582.496 367.443 580.755 367.443 578.623C367.443 576.491 369.187 574.75 371.324 574.75H515.271C517.407 574.75 519.151 576.491 519.151 578.623C519.151 580.755 517.407 582.496 515.271 582.496Z" fill="#CCFBF1"/>
<path d="M549.084 582.496H534.361C532.225 582.496 530.481 580.755 530.481 578.623C530.481 576.491 532.225 574.75 534.361 574.75H549.084C551.221 574.75 552.965 576.491 552.965 578.623C552.965 580.755 551.221 582.496 549.084 582.496Z" fill="#CCFBF1"/>
<path d="M434.732 590.781H496.613C498.749 590.781 500.494 592.522 500.494 594.654C500.494 596.786 498.749 598.527 496.613 598.527H434.732C432.596 598.527 430.852 596.786 430.852 594.654C430.852 592.522 432.596 590.781 434.732 590.781Z" fill="#CCFBF1"/>
<path d="M371.324 590.781H415.629C417.765 590.781 419.509 592.522 419.509 594.654C419.509 596.786 417.765 598.527 415.629 598.527H371.324C369.187 598.527 367.443 596.786 367.443 594.654C367.443 592.522 369.187 590.781 371.324 590.781Z" fill="#CCFBF1"/>
<path d="M458.514 614.558H371.324C369.187 614.558 367.443 612.817 367.443 610.685C367.443 608.553 369.187 606.812 371.324 606.812H458.514C460.65 606.812 462.394 608.553 462.394 610.685C462.394 612.817 460.65 614.558 458.514 614.558Z" fill="#CCFBF1"/>
<path d="M521.909 614.558H477.604C475.468 614.558 473.724 612.817 473.724 610.685C473.724 608.553 475.468 606.812 477.604 606.812H521.909C524.045 606.812 525.789 608.553 525.789 610.685C525.789 612.817 524.045 614.558 521.909 614.558Z" fill="#CCFBF1"/>
<path d="M316.343 433.753L192.972 457.197C188.057 458.131 184.832 462.865 185.768 467.77L215.647 624.4C216.583 629.305 221.326 632.525 226.24 631.591L349.611 608.146C354.526 607.212 357.751 602.479 356.815 597.574L326.936 440.943C326 436.038 321.257 432.819 316.343 433.753Z" fill="white"/>
<path d="M388.74 485.21C388.059 485.21 387.378 485.112 386.696 484.916C386.024 484.72 385.446 484.463 384.96 484.146L385.394 483.138C385.805 483.399 386.318 483.623 386.934 483.81C387.55 483.987 388.138 484.076 388.698 484.076C389.445 484.076 390.038 483.941 390.476 483.67C390.915 483.399 391.134 483.021 391.134 482.536C391.134 482.191 391.032 481.915 390.826 481.71C390.621 481.495 390.355 481.332 390.028 481.22C389.702 481.099 389.23 480.959 388.614 480.8C387.802 480.576 387.158 480.347 386.682 480.114C386.216 479.871 385.866 479.577 385.632 479.232C385.408 478.887 385.296 478.448 385.296 477.916C385.296 477.356 385.45 476.871 385.758 476.46C386.076 476.049 386.51 475.737 387.06 475.522C387.611 475.307 388.232 475.2 388.922 475.2C389.893 475.2 390.929 475.41 392.03 475.83L391.624 476.88C390.672 476.525 389.772 476.348 388.922 476.348C388.185 476.348 387.597 476.493 387.158 476.782C386.729 477.062 386.514 477.445 386.514 477.93C386.514 478.285 386.608 478.569 386.794 478.784C386.99 478.989 387.252 479.153 387.578 479.274C387.914 479.395 388.4 479.535 389.034 479.694C390.182 479.983 391.022 480.333 391.554 480.744C392.086 481.145 392.352 481.71 392.352 482.438C392.352 483.306 392.016 483.987 391.344 484.482C390.672 484.967 389.804 485.21 388.74 485.21ZM397.294 485.098C396.65 485.098 396.057 484.939 395.516 484.622C394.975 484.305 394.545 483.875 394.228 483.334C393.911 482.783 393.752 482.186 393.752 481.542C393.752 480.898 393.911 480.305 394.228 479.764C394.545 479.223 394.975 478.793 395.516 478.476C396.057 478.159 396.65 478 397.294 478C397.947 478 398.535 478.159 399.058 478.476C399.581 478.793 399.987 479.223 400.276 479.764C400.575 480.305 400.724 480.898 400.724 481.542C400.724 481.71 400.71 481.864 400.682 482.004H394.928C394.975 482.387 395.11 482.741 395.334 483.068C395.558 483.385 395.843 483.637 396.188 483.824C396.533 484.001 396.907 484.09 397.308 484.09C397.765 484.09 398.185 483.978 398.568 483.754C398.951 483.53 399.249 483.227 399.464 482.844L400.374 483.278C400.075 483.838 399.655 484.281 399.114 484.608C398.573 484.935 397.966 485.098 397.294 485.098ZM399.632 481.038C399.557 480.478 399.296 480.007 398.848 479.624C398.409 479.232 397.896 479.036 397.308 479.036C396.711 479.036 396.188 479.227 395.74 479.61C395.301 479.993 395.04 480.469 394.956 481.038H399.632ZM402.164 478.098H403.186V480.016L403.382 480.058V485H402.164V478.098ZM402.696 481.668C402.696 481.052 402.827 480.469 403.088 479.918C403.359 479.367 403.737 478.924 404.222 478.588C404.708 478.252 405.268 478.084 405.902 478.084H406.224V479.204H405.594C405.202 479.204 404.834 479.307 404.488 479.512C404.152 479.708 403.882 479.979 403.676 480.324C403.48 480.66 403.382 481.029 403.382 481.43L402.696 481.668ZM409.332 485L406.714 478.098H407.96L410.102 483.74L412.216 478.098H413.476L410.858 485H409.332ZM417.46 485.098C416.816 485.098 416.223 484.939 415.682 484.622C415.141 484.305 414.711 483.875 414.394 483.334C414.077 482.783 413.918 482.186 413.918 481.542C413.918 480.898 414.077 480.305 414.394 479.764C414.711 479.223 415.141 478.793 415.682 478.476C416.223 478.159 416.816 478 417.46 478C418.113 478 418.701 478.159 419.224 478.476C419.747 478.793 420.153 479.223 420.442 479.764C420.741 480.305 420.89 480.898 420.89 481.542C420.89 481.71 420.876 481.864 420.848 482.004H415.094C415.141 482.387 415.276 482.741 415.5 483.068C415.724 483.385 416.009 483.637 416.354 483.824C416.699 484.001 417.073 484.09 417.474 484.09C417.931 484.09 418.351 483.978 418.734 483.754C419.117 483.53 419.415 483.227 419.63 482.844L420.54 483.278C420.241 483.838 419.821 484.281 419.28 484.608C418.739 484.935 418.132 485.098 417.46 485.098ZM419.798 481.038C419.723 480.478 419.462 480.007 419.014 479.624C418.575 479.232 418.062 479.036 417.474 479.036C416.877 479.036 416.354 479.227 415.906 479.61C415.467 479.993 415.206 480.469 415.122 481.038H419.798ZM422.33 478.098H423.352V480.016L423.548 480.058V485H422.33V478.098ZM422.862 481.668C422.862 481.052 422.993 480.469 423.254 479.918C423.525 479.367 423.903 478.924 424.388 478.588C424.874 478.252 425.434 478.084 426.068 478.084H426.39V479.204H425.76C425.368 479.204 425 479.307 424.654 479.512C424.318 479.708 424.048 479.979 423.842 480.324C423.646 480.66 423.548 481.029 423.548 481.43L422.862 481.668Z" fill="white"/>
</g>
<defs>
<filter id="filter0_f_4_2018" x="124.161" y="763.566" width="557.679" height="63.9503" filterUnits="userSpaceOnUse" color-interpolation-filters="sRGB">
<feFlood flood-opacity="0" result="BackgroundImageFix"/>
<feBlend mode="normal" in="SourceGraphic" in2="BackgroundImageFix" result="shape"/>
<feGaussianBlur stdDeviation="8.35" result="effect1_foregroundBlur_4_2018"/>
</filter>
<clipPath id="clip0_4_2018">
<rect width="676" height="615" fill="white" transform="translate(65 209)"/>
</clipPath>
</defs>
</svg>
